<mxfile host="app.diagrams.net" agent="Mozilla/5.0 (Macintosh; Intel Mac OS X 10_15_7) AppleWebKit/537.36 (KHTML, like Gecko) Chrome/137.0.0.0 Safari/537.36" version="27.0.6" pages="4">
  <diagram name="Page-1" id="LRiTNrdCjLsmmy0yda2s">
    <mxGraphModel dx="470" dy="648" grid="1" gridSize="10" guides="1" tooltips="1" connect="1" arrows="1" fold="1" page="1" pageScale="1" pageWidth="827" pageHeight="1169" math="0" shadow="0">
      <root>
        <mxCell id="0" />
        <mxCell id="1" parent="0" />
        <mxCell id="2vb0QAPG10PsCei8VRBV-12" value="" style="edgeStyle=none;curved=1;rounded=0;orthogonalLoop=1;jettySize=auto;html=1;fontSize=12;startSize=8;endSize=8;" parent="1" source="2vb0QAPG10PsCei8VRBV-3" target="2vb0QAPG10PsCei8VRBV-4" edge="1">
          <mxGeometry relative="1" as="geometry" />
        </mxCell>
        <mxCell id="2vb0QAPG10PsCei8VRBV-1" value="" style="sketch=0;outlineConnect=0;fontColor=#232F3E;gradientColor=none;fillColor=#232F3D;strokeColor=none;dashed=0;verticalLabelPosition=bottom;verticalAlign=top;align=center;html=1;fontSize=12;fontStyle=0;aspect=fixed;pointerEvents=1;shape=mxgraph.aws4.authenticated_user;" parent="1" vertex="1">
          <mxGeometry x="170" y="10" width="78" height="78" as="geometry" />
        </mxCell>
        <mxCell id="2vb0QAPG10PsCei8VRBV-11" value="" style="edgeStyle=none;curved=1;rounded=0;orthogonalLoop=1;jettySize=auto;html=1;fontSize=12;startSize=8;endSize=8;" parent="1" source="2vb0QAPG10PsCei8VRBV-3" target="2vb0QAPG10PsCei8VRBV-4" edge="1">
          <mxGeometry relative="1" as="geometry" />
        </mxCell>
        <mxCell id="2vb0QAPG10PsCei8VRBV-10" value="" style="edgeStyle=none;curved=1;rounded=0;orthogonalLoop=1;jettySize=auto;html=1;fontSize=12;startSize=8;endSize=8;" parent="1" source="2vb0QAPG10PsCei8VRBV-4" target="2vb0QAPG10PsCei8VRBV-5" edge="1">
          <mxGeometry relative="1" as="geometry" />
        </mxCell>
        <mxCell id="2vb0QAPG10PsCei8VRBV-4" value="" style="sketch=0;outlineConnect=0;fontColor=#232F3E;gradientColor=none;fillColor=#8C4FFF;strokeColor=none;dashed=0;verticalLabelPosition=bottom;verticalAlign=top;align=center;html=1;fontSize=12;fontStyle=0;aspect=fixed;pointerEvents=1;shape=mxgraph.aws4.application_load_balancer;" parent="1" vertex="1">
          <mxGeometry x="150" y="250" width="98" height="98" as="geometry" />
        </mxCell>
        <mxCell id="2vb0QAPG10PsCei8VRBV-35" style="edgeStyle=none;curved=1;rounded=0;orthogonalLoop=1;jettySize=auto;html=1;fontSize=12;startSize=8;endSize=8;" parent="1" source="2vb0QAPG10PsCei8VRBV-5" edge="1">
          <mxGeometry relative="1" as="geometry">
            <mxPoint x="280" y="600" as="targetPoint" />
          </mxGeometry>
        </mxCell>
        <mxCell id="2vb0QAPG10PsCei8VRBV-5" value="" style="sketch=0;points=[[0,0,0],[0.25,0,0],[0.5,0,0],[0.75,0,0],[1,0,0],[0,1,0],[0.25,1,0],[0.5,1,0],[0.75,1,0],[1,1,0],[0,0.25,0],[0,0.5,0],[0,0.75,0],[1,0.25,0],[1,0.5,0],[1,0.75,0]];outlineConnect=0;fontColor=#232F3E;fillColor=#ED7100;strokeColor=#ffffff;dashed=0;verticalLabelPosition=bottom;verticalAlign=top;align=center;html=1;fontSize=12;fontStyle=0;aspect=fixed;shape=mxgraph.aws4.resourceIcon;resIcon=mxgraph.aws4.elastic_beanstalk;" parent="1" vertex="1">
          <mxGeometry x="240" y="400" width="78" height="78" as="geometry" />
        </mxCell>
        <mxCell id="2vb0QAPG10PsCei8VRBV-34" style="edgeStyle=none;curved=1;rounded=0;orthogonalLoop=1;jettySize=auto;html=1;fontSize=12;startSize=8;endSize=8;entryX=0;entryY=0.75;entryDx=0;entryDy=0;entryPerimeter=0;" parent="1" source="2vb0QAPG10PsCei8VRBV-7" target="2vb0QAPG10PsCei8VRBV-5" edge="1">
          <mxGeometry relative="1" as="geometry">
            <mxPoint x="200" y="530" as="targetPoint" />
          </mxGeometry>
        </mxCell>
        <mxCell id="2vb0QAPG10PsCei8VRBV-7" value="" style="sketch=0;points=[[0,0,0],[0.25,0,0],[0.5,0,0],[0.75,0,0],[1,0,0],[0,1,0],[0.25,1,0],[0.5,1,0],[0.75,1,0],[1,1,0],[0,0.25,0],[0,0.5,0],[0,0.75,0],[1,0.25,0],[1,0.5,0],[1,0.75,0]];outlineConnect=0;fontColor=#232F3E;fillColor=#7AA116;strokeColor=#ffffff;dashed=0;verticalLabelPosition=bottom;verticalAlign=top;align=center;html=1;fontSize=12;fontStyle=0;aspect=fixed;shape=mxgraph.aws4.resourceIcon;resIcon=mxgraph.aws4.s3;" parent="1" vertex="1">
          <mxGeometry x="30" y="422" width="78" height="78" as="geometry" />
        </mxCell>
        <mxCell id="2vb0QAPG10PsCei8VRBV-13" value="" style="edgeStyle=none;curved=1;rounded=0;orthogonalLoop=1;jettySize=auto;html=1;fontSize=12;startSize=8;endSize=8;" parent="1" source="2vb0QAPG10PsCei8VRBV-1" target="2vb0QAPG10PsCei8VRBV-3" edge="1">
          <mxGeometry relative="1" as="geometry">
            <mxPoint x="205" y="118" as="sourcePoint" />
            <mxPoint x="193" y="250" as="targetPoint" />
          </mxGeometry>
        </mxCell>
        <mxCell id="2vb0QAPG10PsCei8VRBV-3" value="" style="sketch=0;points=[[0,0,0],[0.25,0,0],[0.5,0,0],[0.75,0,0],[1,0,0],[0,1,0],[0.25,1,0],[0.5,1,0],[0.75,1,0],[1,1,0],[0,0.25,0],[0,0.5,0],[0,0.75,0],[1,0.25,0],[1,0.5,0],[1,0.75,0]];outlineConnect=0;fontColor=#232F3E;fillColor=#8C4FFF;strokeColor=#ffffff;dashed=0;verticalLabelPosition=bottom;verticalAlign=top;align=center;html=1;fontSize=12;fontStyle=0;aspect=fixed;shape=mxgraph.aws4.resourceIcon;resIcon=mxgraph.aws4.route_53;" parent="1" vertex="1">
          <mxGeometry x="170" y="130" width="78" height="78" as="geometry" />
        </mxCell>
        <mxCell id="2vb0QAPG10PsCei8VRBV-25" value="" style="edgeStyle=none;curved=1;rounded=0;orthogonalLoop=1;jettySize=auto;html=1;fontSize=12;startSize=8;endSize=8;" parent="1" source="2vb0QAPG10PsCei8VRBV-32" target="2vb0QAPG10PsCei8VRBV-24" edge="1">
          <mxGeometry relative="1" as="geometry">
            <mxPoint x="175.20698572142828" y="727.965933366665" as="sourcePoint" />
          </mxGeometry>
        </mxCell>
        <mxCell id="2vb0QAPG10PsCei8VRBV-24" value="" style="sketch=0;points=[[0,0,0],[0.25,0,0],[0.5,0,0],[0.75,0,0],[1,0,0],[0,1,0],[0.25,1,0],[0.5,1,0],[0.75,1,0],[1,1,0],[0,0.25,0],[0,0.5,0],[0,0.75,0],[1,0.25,0],[1,0.5,0],[1,0.75,0]];outlineConnect=0;fontColor=#232F3E;fillColor=#7AA116;strokeColor=#ffffff;dashed=0;verticalLabelPosition=bottom;verticalAlign=top;align=center;html=1;fontSize=12;fontStyle=0;aspect=fixed;shape=mxgraph.aws4.resourceIcon;resIcon=mxgraph.aws4.backup;" parent="1" vertex="1">
          <mxGeometry x="233.45000000000002" y="730" width="78" height="78" as="geometry" />
        </mxCell>
        <mxCell id="2vb0QAPG10PsCei8VRBV-32" value="" style="sketch=0;outlineConnect=0;fontColor=#232F3E;gradientColor=none;fillColor=#C925D1;strokeColor=none;dashed=0;verticalLabelPosition=bottom;verticalAlign=top;align=center;html=1;fontSize=12;fontStyle=0;aspect=fixed;pointerEvents=1;shape=mxgraph.aws4.rds_multi_az;" parent="1" vertex="1">
          <mxGeometry x="220" y="600" width="104.9" height="78" as="geometry" />
        </mxCell>
        <mxCell id="2vb0QAPG10PsCei8VRBV-37" style="edgeStyle=none;curved=1;rounded=0;orthogonalLoop=1;jettySize=auto;html=1;fontSize=12;startSize=8;endSize=8;" parent="1" source="2vb0QAPG10PsCei8VRBV-36" edge="1">
          <mxGeometry relative="1" as="geometry">
            <mxPoint x="320" y="440" as="targetPoint" />
          </mxGeometry>
        </mxCell>
        <mxCell id="2vb0QAPG10PsCei8VRBV-36" value="" style="sketch=0;points=[[0,0,0],[0.25,0,0],[0.5,0,0],[0.75,0,0],[1,0,0],[0,1,0],[0.25,1,0],[0.5,1,0],[0.75,1,0],[1,1,0],[0,0.25,0],[0,0.5,0],[0,0.75,0],[1,0.25,0],[1,0.5,0],[1,0.75,0]];outlineConnect=0;fontColor=#232F3E;fillColor=#C925D1;strokeColor=#ffffff;dashed=0;verticalLabelPosition=bottom;verticalAlign=top;align=center;html=1;fontSize=12;fontStyle=0;aspect=fixed;shape=mxgraph.aws4.resourceIcon;resIcon=mxgraph.aws4.codepipeline;" parent="1" vertex="1">
          <mxGeometry x="490" y="400" width="78" height="78" as="geometry" />
        </mxCell>
      </root>
    </mxGraphModel>
  </diagram>
  <diagram id="yihqrrZ93oVqNt2SVDXp" name="Page-2">
    <mxGraphModel dx="870" dy="1048" grid="0" gridSize="10" guides="1" tooltips="1" connect="1" arrows="1" fold="1" page="0" pageScale="1" pageWidth="827" pageHeight="1169" math="0" shadow="0">
      <root>
        <mxCell id="0" />
        <mxCell id="1" parent="0" />
        <mxCell id="lSXLYDdU7N9aKenLkvtJ-5" value="Amazon Athena" style="sketch=0;outlineConnect=0;fontColor=#232F3E;gradientColor=none;strokeColor=#ffffff;fillColor=#232F3E;dashed=0;verticalLabelPosition=middle;verticalAlign=bottom;align=center;html=1;whiteSpace=wrap;fontSize=10;fontStyle=1;spacing=3;shape=mxgraph.aws4.productIcon;prIcon=mxgraph.aws4.athena;" vertex="1" parent="1">
          <mxGeometry x="210" y="284" width="80" height="110" as="geometry" />
        </mxCell>
        <mxCell id="lSXLYDdU7N9aKenLkvtJ-6" value="AWS Glue" style="sketch=0;outlineConnect=0;fontColor=#232F3E;gradientColor=none;strokeColor=#ffffff;fillColor=#232F3E;dashed=0;verticalLabelPosition=middle;verticalAlign=bottom;align=center;html=1;whiteSpace=wrap;fontSize=10;fontStyle=1;spacing=3;shape=mxgraph.aws4.productIcon;prIcon=mxgraph.aws4.glue;" vertex="1" parent="1">
          <mxGeometry x="210" y="160" width="80" height="100" as="geometry" />
        </mxCell>
        <mxCell id="lSXLYDdU7N9aKenLkvtJ-7" value="Amazon Kinesis" style="sketch=0;outlineConnect=0;fontColor=#232F3E;gradientColor=none;strokeColor=#ffffff;fillColor=#232F3E;dashed=0;verticalLabelPosition=middle;verticalAlign=bottom;align=center;html=1;whiteSpace=wrap;fontSize=10;fontStyle=1;spacing=3;shape=mxgraph.aws4.productIcon;prIcon=mxgraph.aws4.kinesis;" vertex="1" parent="1">
          <mxGeometry x="205" y="-100" width="80" height="110" as="geometry" />
        </mxCell>
        <mxCell id="lSXLYDdU7N9aKenLkvtJ-8" value="Amazon S3" style="sketch=0;outlineConnect=0;fontColor=#232F3E;gradientColor=none;strokeColor=#ffffff;fillColor=#232F3E;dashed=0;verticalLabelPosition=middle;verticalAlign=bottom;align=center;html=1;whiteSpace=wrap;fontSize=10;fontStyle=1;spacing=3;shape=mxgraph.aws4.productIcon;prIcon=mxgraph.aws4.s3;" vertex="1" parent="1">
          <mxGeometry x="210" y="35" width="80" height="100" as="geometry" />
        </mxCell>
        <mxCell id="lSXLYDdU7N9aKenLkvtJ-9" value="Amazon QuickSight" style="sketch=0;outlineConnect=0;fontColor=#232F3E;gradientColor=none;strokeColor=#ffffff;fillColor=#232F3E;dashed=0;verticalLabelPosition=middle;verticalAlign=bottom;align=center;html=1;whiteSpace=wrap;fontSize=10;fontStyle=1;spacing=3;shape=mxgraph.aws4.productIcon;prIcon=mxgraph.aws4.quicksight;" vertex="1" parent="1">
          <mxGeometry x="213" y="418" width="80" height="110" as="geometry" />
        </mxCell>
        <mxCell id="lSXLYDdU7N9aKenLkvtJ-11" value="VPC" style="points=[[0,0],[0.25,0],[0.5,0],[0.75,0],[1,0],[1,0.25],[1,0.5],[1,0.75],[1,1],[0.75,1],[0.5,1],[0.25,1],[0,1],[0,0.75],[0,0.5],[0,0.25]];outlineConnect=0;gradientColor=none;html=1;whiteSpace=wrap;fontSize=12;fontStyle=0;container=1;pointerEvents=0;collapsible=0;recursiveResize=0;shape=mxgraph.aws4.group;grIcon=mxgraph.aws4.group_vpc2;strokeColor=#8C4FFF;fillColor=none;verticalAlign=top;align=left;spacingLeft=30;fontColor=#AAB7B8;dashed=0;" vertex="1" parent="1">
          <mxGeometry x="-39" y="27" width="372" height="220" as="geometry" />
        </mxCell>
        <mxCell id="lSXLYDdU7N9aKenLkvtJ-10" value="" style="sketch=0;points=[[0,0,0],[0.25,0,0],[0.5,0,0],[0.75,0,0],[1,0,0],[0,1,0],[0.25,1,0],[0.5,1,0],[0.75,1,0],[1,1,0],[0,0.25,0],[0,0.5,0],[0,0.75,0],[1,0.25,0],[1,0.5,0],[1,0.75,0]];outlineConnect=0;fontColor=#232F3E;fillColor=#DD344C;strokeColor=#ffffff;dashed=0;verticalLabelPosition=bottom;verticalAlign=top;align=center;html=1;fontSize=12;fontStyle=0;aspect=fixed;shape=mxgraph.aws4.resourceIcon;resIcon=mxgraph.aws4.identity_and_access_management;" vertex="1" parent="lSXLYDdU7N9aKenLkvtJ-11">
          <mxGeometry x="357" y="107" width="32" height="32" as="geometry" />
        </mxCell>
        <mxCell id="lSXLYDdU7N9aKenLkvtJ-13" value="" style="outlineConnect=0;dashed=0;verticalLabelPosition=bottom;verticalAlign=top;align=center;html=1;shape=mxgraph.aws3.kms;fillColor=#759C3E;gradientColor=none;" vertex="1" parent="lSXLYDdU7N9aKenLkvtJ-11">
          <mxGeometry x="343.5" y="14" width="59" height="65" as="geometry" />
        </mxCell>
        <mxCell id="lSXLYDdU7N9aKenLkvtJ-12" style="edgeStyle=none;curved=1;rounded=0;orthogonalLoop=1;jettySize=auto;html=1;exitX=1;exitY=1;exitDx=0;exitDy=0;fontSize=12;startSize=8;endSize=8;" edge="1" parent="1" source="lSXLYDdU7N9aKenLkvtJ-11" target="lSXLYDdU7N9aKenLkvtJ-11">
          <mxGeometry relative="1" as="geometry" />
        </mxCell>
        <mxCell id="lSXLYDdU7N9aKenLkvtJ-14" style="edgeStyle=none;curved=1;rounded=0;orthogonalLoop=1;jettySize=auto;html=1;exitX=1;exitY=1;exitDx=0;exitDy=0;fontSize=12;startSize=8;endSize=8;" edge="1" parent="1" source="lSXLYDdU7N9aKenLkvtJ-11" target="lSXLYDdU7N9aKenLkvtJ-11">
          <mxGeometry relative="1" as="geometry" />
        </mxCell>
      </root>
    </mxGraphModel>
  </diagram>
  <diagram id="xxQEu6CaFm9iXRLHje1b" name="ai/ml cloud setup">
    <mxGraphModel dx="867" dy="1048" grid="0" gridSize="10" guides="1" tooltips="1" connect="1" arrows="1" fold="1" page="0" pageScale="1" pageWidth="827" pageHeight="1169" background="#ffffff" math="0" shadow="0">
      <root>
        <mxCell id="0" />
        <mxCell id="1" parent="0" />
        <mxCell id="ynu2Q9-LEVka1MWftvQc-21" value="AWS Cloud" style="points=[[0,0],[0.25,0],[0.5,0],[0.75,0],[1,0],[1,0.25],[1,0.5],[1,0.75],[1,1],[0.75,1],[0.5,1],[0.25,1],[0,1],[0,0.75],[0,0.5],[0,0.25]];outlineConnect=0;gradientColor=none;html=1;whiteSpace=wrap;fontSize=12;fontStyle=0;container=1;pointerEvents=0;collapsible=0;recursiveResize=0;shape=mxgraph.aws4.group;grIcon=mxgraph.aws4.group_aws_cloud_alt;strokeColor=#232F3E;fillColor=none;verticalAlign=top;align=left;spacingLeft=30;fontColor=#232F3E;dashed=0;" parent="1" vertex="1">
          <mxGeometry x="-29" y="-301" width="1038" height="938" as="geometry" />
        </mxCell>
        <mxCell id="ynu2Q9-LEVka1MWftvQc-49" value="" style="edgeStyle=none;curved=1;rounded=0;orthogonalLoop=1;jettySize=auto;html=1;fontSize=12;startSize=8;endSize=8;" parent="ynu2Q9-LEVka1MWftvQc-21" source="ynu2Q9-LEVka1MWftvQc-3" target="ynu2Q9-LEVka1MWftvQc-6" edge="1">
          <mxGeometry relative="1" as="geometry" />
        </mxCell>
        <mxCell id="ynu2Q9-LEVka1MWftvQc-3" value="" style="sketch=0;points=[[0,0,0],[0.25,0,0],[0.5,0,0],[0.75,0,0],[1,0,0],[0,1,0],[0.25,1,0],[0.5,1,0],[0.75,1,0],[1,1,0],[0,0.25,0],[0,0.5,0],[0,0.75,0],[1,0.25,0],[1,0.5,0],[1,0.75,0]];outlineConnect=0;fontColor=#232F3E;fillColor=#DD344C;strokeColor=#ffffff;dashed=0;verticalLabelPosition=bottom;verticalAlign=top;align=center;html=1;fontSize=12;fontStyle=0;aspect=fixed;shape=mxgraph.aws4.resourceIcon;resIcon=mxgraph.aws4.security_hub;" parent="ynu2Q9-LEVka1MWftvQc-21" vertex="1">
          <mxGeometry x="79" y="52" width="78" height="78" as="geometry" />
        </mxCell>
        <mxCell id="ynu2Q9-LEVka1MWftvQc-48" value="" style="edgeStyle=none;curved=1;rounded=0;orthogonalLoop=1;jettySize=auto;html=1;fontSize=12;startSize=8;endSize=8;" parent="ynu2Q9-LEVka1MWftvQc-21" source="ynu2Q9-LEVka1MWftvQc-2" target="ynu2Q9-LEVka1MWftvQc-3" edge="1">
          <mxGeometry relative="1" as="geometry" />
        </mxCell>
        <mxCell id="ynu2Q9-LEVka1MWftvQc-2" value="AWS&#xa;CloudTrail" style="sketch=0;outlineConnect=0;fontColor=#232F3E;gradientColor=none;strokeColor=#ffffff;fillColor=#232F3E;dashed=0;verticalLabelPosition=middle;verticalAlign=bottom;align=center;html=1;whiteSpace=wrap;fontSize=10;fontStyle=1;spacing=3;shape=mxgraph.aws4.productIcon;prIcon=mxgraph.aws4.cloudtrail;" parent="ynu2Q9-LEVka1MWftvQc-21" vertex="1">
          <mxGeometry x="77" y="173" width="80" height="109" as="geometry" />
        </mxCell>
        <mxCell id="ynu2Q9-LEVka1MWftvQc-50" value="" style="edgeStyle=none;curved=1;rounded=0;orthogonalLoop=1;jettySize=auto;html=1;fontSize=12;startSize=8;endSize=8;" parent="ynu2Q9-LEVka1MWftvQc-21" source="ynu2Q9-LEVka1MWftvQc-6" target="ynu2Q9-LEVka1MWftvQc-4" edge="1">
          <mxGeometry relative="1" as="geometry" />
        </mxCell>
        <mxCell id="ynu2Q9-LEVka1MWftvQc-6" value="" style="sketch=0;points=[[0,0,0],[0.25,0,0],[0.5,0,0],[0.75,0,0],[1,0,0],[0,1,0],[0.25,1,0],[0.5,1,0],[0.75,1,0],[1,1,0],[0,0.25,0],[0,0.5,0],[0,0.75,0],[1,0.25,0],[1,0.5,0],[1,0.75,0]];outlineConnect=0;fontColor=#232F3E;fillColor=#DD344C;strokeColor=#ffffff;dashed=0;verticalLabelPosition=bottom;verticalAlign=top;align=center;html=1;fontSize=12;fontStyle=0;aspect=fixed;shape=mxgraph.aws4.resourceIcon;resIcon=mxgraph.aws4.security_lake;" parent="ynu2Q9-LEVka1MWftvQc-21" vertex="1">
          <mxGeometry x="279" y="54" width="78" height="78" as="geometry" />
        </mxCell>
        <mxCell id="ynu2Q9-LEVka1MWftvQc-53" value="" style="edgeStyle=none;curved=1;rounded=0;orthogonalLoop=1;jettySize=auto;html=1;fontSize=12;startSize=8;endSize=8;" parent="ynu2Q9-LEVka1MWftvQc-21" source="ynu2Q9-LEVka1MWftvQc-4" target="ynu2Q9-LEVka1MWftvQc-12" edge="1">
          <mxGeometry relative="1" as="geometry" />
        </mxCell>
        <mxCell id="ynu2Q9-LEVka1MWftvQc-4" value="" style="sketch=0;outlineConnect=0;fontColor=#232F3E;gradientColor=none;fillColor=#8C4FFF;strokeColor=none;dashed=0;verticalLabelPosition=bottom;verticalAlign=top;align=center;html=1;fontSize=12;fontStyle=0;aspect=fixed;pointerEvents=1;shape=mxgraph.aws4.flow_logs;" parent="ynu2Q9-LEVka1MWftvQc-21" vertex="1">
          <mxGeometry x="443" y="56" width="70" height="70" as="geometry" />
        </mxCell>
        <mxCell id="ynu2Q9-LEVka1MWftvQc-45" value="" style="edgeStyle=none;curved=1;rounded=0;orthogonalLoop=1;jettySize=auto;html=1;fontSize=12;startSize=8;endSize=8;exitX=1;exitY=0.5;exitDx=0;exitDy=0;exitPerimeter=0;" parent="ynu2Q9-LEVka1MWftvQc-21" source="ynu2Q9-LEVka1MWftvQc-12" target="ynu2Q9-LEVka1MWftvQc-13" edge="1">
          <mxGeometry relative="1" as="geometry">
            <mxPoint x="764" y="89" as="sourcePoint" />
          </mxGeometry>
        </mxCell>
        <mxCell id="ynu2Q9-LEVka1MWftvQc-12" value="" style="sketch=0;points=[[0,0,0],[0.25,0,0],[0.5,0,0],[0.75,0,0],[1,0,0],[0,1,0],[0.25,1,0],[0.5,1,0],[0.75,1,0],[1,1,0],[0,0.25,0],[0,0.5,0],[0,0.75,0],[1,0.25,0],[1,0.5,0],[1,0.75,0]];outlineConnect=0;fontColor=#232F3E;fillColor=#8C4FFF;strokeColor=#ffffff;dashed=0;verticalLabelPosition=bottom;verticalAlign=top;align=center;html=1;fontSize=12;fontStyle=0;aspect=fixed;shape=mxgraph.aws4.resourceIcon;resIcon=mxgraph.aws4.kinesis_data_streams;" parent="ynu2Q9-LEVka1MWftvQc-21" vertex="1">
          <mxGeometry x="634" y="56" width="70" height="70" as="geometry" />
        </mxCell>
        <mxCell id="ynu2Q9-LEVka1MWftvQc-35" style="edgeStyle=none;curved=1;rounded=0;orthogonalLoop=1;jettySize=auto;html=1;fontSize=12;startSize=8;endSize=8;" parent="ynu2Q9-LEVka1MWftvQc-21" source="ynu2Q9-LEVka1MWftvQc-13" target="ynu2Q9-LEVka1MWftvQc-7" edge="1">
          <mxGeometry relative="1" as="geometry" />
        </mxCell>
        <mxCell id="ynu2Q9-LEVka1MWftvQc-13" value="" style="sketch=0;points=[[0,0,0],[0.25,0,0],[0.5,0,0],[0.75,0,0],[1,0,0],[0,1,0],[0.25,1,0],[0.5,1,0],[0.75,1,0],[1,1,0],[0,0.25,0],[0,0.5,0],[0,0.75,0],[1,0.25,0],[1,0.5,0],[1,0.75,0]];outlineConnect=0;fontColor=#232F3E;fillColor=#8C4FFF;strokeColor=#ffffff;dashed=0;verticalLabelPosition=bottom;verticalAlign=top;align=center;html=1;fontSize=12;fontStyle=0;aspect=fixed;shape=mxgraph.aws4.resourceIcon;resIcon=mxgraph.aws4.kinesis_data_analytics;" parent="ynu2Q9-LEVka1MWftvQc-21" vertex="1">
          <mxGeometry x="793" y="52" width="78" height="78" as="geometry" />
        </mxCell>
        <mxCell id="ynu2Q9-LEVka1MWftvQc-39" style="edgeStyle=none;curved=1;rounded=0;orthogonalLoop=1;jettySize=auto;html=1;fontSize=12;startSize=8;endSize=8;" parent="ynu2Q9-LEVka1MWftvQc-21" source="ynu2Q9-LEVka1MWftvQc-7" target="ynu2Q9-LEVka1MWftvQc-8" edge="1">
          <mxGeometry relative="1" as="geometry" />
        </mxCell>
        <mxCell id="ynu2Q9-LEVka1MWftvQc-7" value="" style="sketch=0;points=[[0,0,0],[0.25,0,0],[0.5,0,0],[0.75,0,0],[1,0,0],[0,1,0],[0.25,1,0],[0.5,1,0],[0.75,1,0],[1,1,0],[0,0.25,0],[0,0.5,0],[0,0.75,0],[1,0.25,0],[1,0.5,0],[1,0.75,0]];outlineConnect=0;fontColor=#232F3E;fillColor=#8C4FFF;strokeColor=#ffffff;dashed=0;verticalLabelPosition=bottom;verticalAlign=top;align=center;html=1;fontSize=12;fontStyle=0;aspect=fixed;shape=mxgraph.aws4.resourceIcon;resIcon=mxgraph.aws4.glue;" parent="ynu2Q9-LEVka1MWftvQc-21" vertex="1">
          <mxGeometry x="793" y="185" width="78" height="78" as="geometry" />
        </mxCell>
        <mxCell id="ynu2Q9-LEVka1MWftvQc-38" style="edgeStyle=none;curved=1;rounded=0;orthogonalLoop=1;jettySize=auto;html=1;fontSize=12;startSize=8;endSize=8;" parent="ynu2Q9-LEVka1MWftvQc-21" source="ynu2Q9-LEVka1MWftvQc-8" target="ynu2Q9-LEVka1MWftvQc-9" edge="1">
          <mxGeometry relative="1" as="geometry" />
        </mxCell>
        <mxCell id="ynu2Q9-LEVka1MWftvQc-8" value="" style="sketch=0;outlineConnect=0;fontColor=#232F3E;gradientColor=none;fillColor=#7AA116;strokeColor=none;dashed=0;verticalLabelPosition=bottom;verticalAlign=top;align=center;html=1;fontSize=12;fontStyle=0;aspect=fixed;pointerEvents=1;shape=mxgraph.aws4.file_cache_s3_linked_datasets;" parent="ynu2Q9-LEVka1MWftvQc-21" vertex="1">
          <mxGeometry x="803" y="300" width="58" height="58" as="geometry" />
        </mxCell>
        <mxCell id="ynu2Q9-LEVka1MWftvQc-9" value="" style="sketch=0;points=[[0,0,0],[0.25,0,0],[0.5,0,0],[0.75,0,0],[1,0,0],[0,1,0],[0.25,1,0],[0.5,1,0],[0.75,1,0],[1,1,0],[0,0.25,0],[0,0.5,0],[0,0.75,0],[1,0.25,0],[1,0.5,0],[1,0.75,0]];outlineConnect=0;fontColor=#232F3E;fillColor=#01A88D;strokeColor=#ffffff;dashed=0;verticalLabelPosition=bottom;verticalAlign=top;align=center;html=1;fontSize=12;fontStyle=0;aspect=fixed;shape=mxgraph.aws4.resourceIcon;resIcon=mxgraph.aws4.sagemaker;" parent="ynu2Q9-LEVka1MWftvQc-21" vertex="1">
          <mxGeometry x="803" y="415" width="57" height="57" as="geometry" />
        </mxCell>
        <mxCell id="ynu2Q9-LEVka1MWftvQc-42" style="edgeStyle=none;curved=1;rounded=0;orthogonalLoop=1;jettySize=auto;html=1;fontSize=12;startSize=8;endSize=8;" parent="ynu2Q9-LEVka1MWftvQc-21" source="ynu2Q9-LEVka1MWftvQc-10" target="ynu2Q9-LEVka1MWftvQc-11" edge="1">
          <mxGeometry relative="1" as="geometry" />
        </mxCell>
        <mxCell id="ynu2Q9-LEVka1MWftvQc-10" value="" style="fillColor=#28A8E0;verticalLabelPosition=bottom;sketch=0;html=1;strokeColor=#ffffff;verticalAlign=top;align=center;points=[[0.145,0.145,0],[0.5,0,0],[0.855,0.145,0],[1,0.5,0],[0.855,0.855,0],[0.5,1,0],[0.145,0.855,0],[0,0.5,0]];pointerEvents=1;shape=mxgraph.cisco_safe.compositeIcon;bgIcon=ellipse;resIcon=mxgraph.cisco_safe.capability.threat_intelligence;" parent="ynu2Q9-LEVka1MWftvQc-21" vertex="1">
          <mxGeometry x="801.5" y="521" width="62.5" height="49" as="geometry" />
        </mxCell>
        <mxCell id="ynu2Q9-LEVka1MWftvQc-11" value="" style="sketch=0;points=[[0,0,0],[0.25,0,0],[0.5,0,0],[0.75,0,0],[1,0,0],[0,1,0],[0.25,1,0],[0.5,1,0],[0.75,1,0],[1,1,0],[0,0.25,0],[0,0.5,0],[0,0.75,0],[1,0.25,0],[1,0.5,0],[1,0.75,0]];outlineConnect=0;fontColor=#232F3E;fillColor=#DD344C;strokeColor=#ffffff;dashed=0;verticalLabelPosition=bottom;verticalAlign=top;align=center;html=1;fontSize=12;fontStyle=0;aspect=fixed;shape=mxgraph.aws4.resourceIcon;resIcon=mxgraph.aws4.security_incident_response;" parent="ynu2Q9-LEVka1MWftvQc-21" vertex="1">
          <mxGeometry x="796" y="625" width="72" height="72" as="geometry" />
        </mxCell>
        <mxCell id="ynu2Q9-LEVka1MWftvQc-40" style="edgeStyle=none;curved=1;rounded=0;orthogonalLoop=1;jettySize=auto;html=1;entryX=0.416;entryY=-0.025;entryDx=0;entryDy=0;entryPerimeter=0;fontSize=12;startSize=8;endSize=8;" parent="ynu2Q9-LEVka1MWftvQc-21" source="ynu2Q9-LEVka1MWftvQc-9" target="ynu2Q9-LEVka1MWftvQc-10" edge="1">
          <mxGeometry relative="1" as="geometry" />
        </mxCell>
        <mxCell id="ynu2Q9-LEVka1MWftvQc-43" style="edgeStyle=none;curved=1;rounded=0;orthogonalLoop=1;jettySize=auto;html=1;exitX=0.75;exitY=1;exitDx=0;exitDy=0;exitPerimeter=0;fontSize=12;startSize=8;endSize=8;" parent="ynu2Q9-LEVka1MWftvQc-21" source="ynu2Q9-LEVka1MWftvQc-11" target="ynu2Q9-LEVka1MWftvQc-11" edge="1">
          <mxGeometry relative="1" as="geometry" />
        </mxCell>
        <mxCell id="ynu2Q9-LEVka1MWftvQc-55" value="Security group" style="fillColor=none;strokeColor=#DD3522;verticalAlign=top;fontStyle=0;fontColor=#DD3522;whiteSpace=wrap;html=1;" parent="ynu2Q9-LEVka1MWftvQc-21" vertex="1">
          <mxGeometry x="61" y="12" width="479" height="332" as="geometry" />
        </mxCell>
        <mxCell id="ynu2Q9-LEVka1MWftvQc-32" value="analysis group" style="fillColor=none;strokeColor=none;dashed=1;verticalAlign=top;fontStyle=0;fontColor=#5A6C86;whiteSpace=wrap;html=1;" parent="1" vertex="1">
          <mxGeometry x="546" y="-285" width="386" height="712" as="geometry" />
        </mxCell>
        <mxCell id="ynu2Q9-LEVka1MWftvQc-33" style="edgeStyle=none;curved=1;rounded=0;orthogonalLoop=1;jettySize=auto;html=1;exitX=0;exitY=0;exitDx=0;exitDy=0;entryX=0.032;entryY=0;entryDx=0;entryDy=0;entryPerimeter=0;fontSize=12;startSize=8;endSize=8;" parent="1" source="ynu2Q9-LEVka1MWftvQc-32" target="ynu2Q9-LEVka1MWftvQc-32" edge="1">
          <mxGeometry relative="1" as="geometry" />
        </mxCell>
        <mxCell id="ynu2Q9-LEVka1MWftvQc-52" style="edgeStyle=none;curved=1;rounded=0;orthogonalLoop=1;jettySize=auto;html=1;exitX=0;exitY=0;exitDx=0;exitDy=0;fontSize=12;startSize=8;endSize=8;" parent="1" source="ynu2Q9-LEVka1MWftvQc-32" target="ynu2Q9-LEVka1MWftvQc-32" edge="1">
          <mxGeometry relative="1" as="geometry" />
        </mxCell>
      </root>
    </mxGraphModel>
  </diagram>
  <diagram id="QlpwmPLxq4T03tBjG9PL" name="Page-4">
    <mxGraphModel dx="689" dy="1048" grid="0" gridSize="10" guides="1" tooltips="1" connect="1" arrows="1" fold="1" page="0" pageScale="1" pageWidth="827" pageHeight="1169" math="0" shadow="0">
      <root>
        <mxCell id="0" />
        <mxCell id="1" parent="0" />
        <mxCell id="Z7rhzHwsSaNoGucR8arV-13" value="" style="edgeStyle=none;curved=1;rounded=0;orthogonalLoop=1;jettySize=auto;html=1;fontSize=12;startSize=8;endSize=8;" edge="1" parent="1" source="Z7rhzHwsSaNoGucR8arV-11" target="Z7rhzHwsSaNoGucR8arV-12">
          <mxGeometry relative="1" as="geometry" />
        </mxCell>
        <mxCell id="Z7rhzHwsSaNoGucR8arV-11" value="VPC Flow Logs" style="sketch=0;outlineConnect=0;fontColor=#232F3E;gradientColor=none;fillColor=#8C4FFF;strokeColor=none;dashed=0;verticalLabelPosition=bottom;verticalAlign=top;align=center;html=1;fontSize=12;fontStyle=0;aspect=fixed;pointerEvents=1;shape=mxgraph.aws4.flow_logs;" vertex="1" parent="1">
          <mxGeometry x="18" y="-284" width="78" height="78" as="geometry" />
        </mxCell>
        <mxCell id="Z7rhzHwsSaNoGucR8arV-15" value="" style="edgeStyle=none;curved=1;rounded=0;orthogonalLoop=1;jettySize=auto;html=1;fontSize=12;startSize=8;endSize=8;" edge="1" parent="1" source="Z7rhzHwsSaNoGucR8arV-12" target="Z7rhzHwsSaNoGucR8arV-14">
          <mxGeometry relative="1" as="geometry" />
        </mxCell>
        <mxCell id="Z7rhzHwsSaNoGucR8arV-12" value="Kinesis" style="sketch=0;points=[[0,0,0],[0.25,0,0],[0.5,0,0],[0.75,0,0],[1,0,0],[0,1,0],[0.25,1,0],[0.5,1,0],[0.75,1,0],[1,1,0],[0,0.25,0],[0,0.5,0],[0,0.75,0],[1,0.25,0],[1,0.5,0],[1,0.75,0]];outlineConnect=0;fontColor=#232F3E;fillColor=#8C4FFF;strokeColor=#ffffff;dashed=0;verticalLabelPosition=bottom;verticalAlign=top;align=center;html=1;fontSize=12;fontStyle=0;aspect=fixed;shape=mxgraph.aws4.resourceIcon;resIcon=mxgraph.aws4.kinesis;" vertex="1" parent="1">
          <mxGeometry x="160" y="-284" width="78" height="78" as="geometry" />
        </mxCell>
        <mxCell id="Z7rhzHwsSaNoGucR8arV-17" value="" style="edgeStyle=none;curved=1;rounded=0;orthogonalLoop=1;jettySize=auto;html=1;fontSize=12;startSize=8;endSize=8;" edge="1" parent="1" source="Z7rhzHwsSaNoGucR8arV-14" target="Z7rhzHwsSaNoGucR8arV-16">
          <mxGeometry relative="1" as="geometry" />
        </mxCell>
        <mxCell id="Z7rhzHwsSaNoGucR8arV-14" value="Glue ETL" style="sketch=0;points=[[0,0,0],[0.25,0,0],[0.5,0,0],[0.75,0,0],[1,0,0],[0,1,0],[0.25,1,0],[0.5,1,0],[0.75,1,0],[1,1,0],[0,0.25,0],[0,0.5,0],[0,0.75,0],[1,0.25,0],[1,0.5,0],[1,0.75,0]];outlineConnect=0;fontColor=#232F3E;fillColor=#8C4FFF;strokeColor=#ffffff;dashed=0;verticalLabelPosition=bottom;verticalAlign=top;align=center;html=1;fontSize=12;fontStyle=0;aspect=fixed;shape=mxgraph.aws4.resourceIcon;resIcon=mxgraph.aws4.glue;" vertex="1" parent="1">
          <mxGeometry x="288" y="-284" width="78" height="78" as="geometry" />
        </mxCell>
        <mxCell id="Z7rhzHwsSaNoGucR8arV-19" value="" style="edgeStyle=none;curved=1;rounded=0;orthogonalLoop=1;jettySize=auto;html=1;fontSize=12;startSize=8;endSize=8;" edge="1" parent="1" source="Z7rhzHwsSaNoGucR8arV-16" target="Z7rhzHwsSaNoGucR8arV-18">
          <mxGeometry relative="1" as="geometry" />
        </mxCell>
        <mxCell id="Z7rhzHwsSaNoGucR8arV-16" value="S3 data lake" style="sketch=0;points=[[0,0,0],[0.25,0,0],[0.5,0,0],[0.75,0,0],[1,0,0],[0,1,0],[0.25,1,0],[0.5,1,0],[0.75,1,0],[1,1,0],[0,0.25,0],[0,0.5,0],[0,0.75,0],[1,0.25,0],[1,0.5,0],[1,0.75,0]];outlineConnect=0;fontColor=#232F3E;fillColor=#7AA116;strokeColor=#ffffff;dashed=0;verticalLabelPosition=bottom;verticalAlign=top;align=center;html=1;fontSize=12;fontStyle=0;aspect=fixed;shape=mxgraph.aws4.resourceIcon;resIcon=mxgraph.aws4.s3;" vertex="1" parent="1">
          <mxGeometry x="416" y="-286" width="78" height="78" as="geometry" />
        </mxCell>
        <mxCell id="Z7rhzHwsSaNoGucR8arV-30" value="" style="edgeStyle=none;curved=1;rounded=0;orthogonalLoop=1;jettySize=auto;html=1;fontSize=12;startSize=8;endSize=8;entryX=0;entryY=0.5;entryDx=0;entryDy=0;entryPerimeter=0;" edge="1" parent="1" source="Z7rhzHwsSaNoGucR8arV-18" target="Z7rhzHwsSaNoGucR8arV-26">
          <mxGeometry relative="1" as="geometry">
            <mxPoint x="738" y="-249" as="targetPoint" />
          </mxGeometry>
        </mxCell>
        <mxCell id="Z7rhzHwsSaNoGucR8arV-18" value="Athena" style="sketch=0;points=[[0,0,0],[0.25,0,0],[0.5,0,0],[0.75,0,0],[1,0,0],[0,1,0],[0.25,1,0],[0.5,1,0],[0.75,1,0],[1,1,0],[0,0.25,0],[0,0.5,0],[0,0.75,0],[1,0.25,0],[1,0.5,0],[1,0.75,0]];outlineConnect=0;fontColor=#232F3E;fillColor=#8C4FFF;strokeColor=#ffffff;dashed=0;verticalLabelPosition=bottom;verticalAlign=top;align=center;html=1;fontSize=12;fontStyle=0;aspect=fixed;shape=mxgraph.aws4.resourceIcon;resIcon=mxgraph.aws4.athena;" vertex="1" parent="1">
          <mxGeometry x="541" y="-288" width="78" height="78" as="geometry" />
        </mxCell>
        <mxCell id="Z7rhzHwsSaNoGucR8arV-20" value="CloudTrail" style="outlineConnect=0;dashed=0;verticalLabelPosition=bottom;verticalAlign=top;align=center;html=1;shape=mxgraph.aws3.cloudtrail;fillColor=#759C3E;gradientColor=none;" vertex="1" parent="1">
          <mxGeometry x="542.5" y="-182" width="76.5" height="93" as="geometry" />
        </mxCell>
        <mxCell id="Z7rhzHwsSaNoGucR8arV-21" value="GuardDuty" style="sketch=0;points=[[0,0,0],[0.25,0,0],[0.5,0,0],[0.75,0,0],[1,0,0],[0,1,0],[0.25,1,0],[0.5,1,0],[0.75,1,0],[1,1,0],[0,0.25,0],[0,0.5,0],[0,0.75,0],[1,0.25,0],[1,0.5,0],[1,0.75,0]];outlineConnect=0;fontColor=#232F3E;fillColor=#DD344C;strokeColor=#ffffff;dashed=0;verticalLabelPosition=bottom;verticalAlign=top;align=center;html=1;fontSize=12;fontStyle=0;aspect=fixed;shape=mxgraph.aws4.resourceIcon;resIcon=mxgraph.aws4.guardduty;" vertex="1" parent="1">
          <mxGeometry x="552" y="-48" width="78" height="78" as="geometry" />
        </mxCell>
        <mxCell id="Z7rhzHwsSaNoGucR8arV-22" value="Macie" style="sketch=0;points=[[0,0,0],[0.25,0,0],[0.5,0,0],[0.75,0,0],[1,0,0],[0,1,0],[0.25,1,0],[0.5,1,0],[0.75,1,0],[1,1,0],[0,0.25,0],[0,0.5,0],[0,0.75,0],[1,0.25,0],[1,0.5,0],[1,0.75,0]];outlineConnect=0;fontColor=#232F3E;fillColor=#DD344C;strokeColor=#ffffff;dashed=0;verticalLabelPosition=bottom;verticalAlign=top;align=center;html=1;fontSize=12;fontStyle=0;aspect=fixed;shape=mxgraph.aws4.resourceIcon;resIcon=mxgraph.aws4.macie;" vertex="1" parent="1">
          <mxGeometry x="550" y="71" width="78" height="78" as="geometry" />
        </mxCell>
        <mxCell id="Z7rhzHwsSaNoGucR8arV-25" value="" style="edgeStyle=none;curved=1;rounded=0;orthogonalLoop=1;jettySize=auto;html=1;fontSize=12;startSize=8;endSize=8;" edge="1" parent="1" source="Z7rhzHwsSaNoGucR8arV-23" target="Z7rhzHwsSaNoGucR8arV-24">
          <mxGeometry relative="1" as="geometry" />
        </mxCell>
        <mxCell id="Z7rhzHwsSaNoGucR8arV-23" value="Security group" style="fillColor=none;strokeColor=#DD3522;verticalAlign=top;fontStyle=0;fontColor=#DD3522;whiteSpace=wrap;html=1;" vertex="1" parent="1">
          <mxGeometry x="466" y="-196" width="238" height="372" as="geometry" />
        </mxCell>
        <mxCell id="Z7rhzHwsSaNoGucR8arV-35" value="" style="edgeStyle=none;curved=1;rounded=0;orthogonalLoop=1;jettySize=auto;html=1;fontSize=12;startSize=8;endSize=8;" edge="1" parent="1" source="Z7rhzHwsSaNoGucR8arV-24">
          <mxGeometry relative="1" as="geometry">
            <mxPoint x="1024" y="-111" as="targetPoint" />
          </mxGeometry>
        </mxCell>
        <mxCell id="Z7rhzHwsSaNoGucR8arV-24" value="" style="sketch=0;points=[[0,0,0],[0.25,0,0],[0.5,0,0],[0.75,0,0],[1,0,0],[0,1,0],[0.25,1,0],[0.5,1,0],[0.75,1,0],[1,1,0],[0,0.25,0],[0,0.5,0],[0,0.75,0],[1,0.25,0],[1,0.5,0],[1,0.75,0]];outlineConnect=0;fontColor=#232F3E;fillColor=#DD344C;strokeColor=#ffffff;dashed=0;verticalLabelPosition=bottom;verticalAlign=top;align=center;html=1;fontSize=12;fontStyle=0;aspect=fixed;shape=mxgraph.aws4.resourceIcon;resIcon=mxgraph.aws4.security_hub;" vertex="1" parent="1">
          <mxGeometry x="791" y="-46" width="78" height="78" as="geometry" />
        </mxCell>
        <mxCell id="Z7rhzHwsSaNoGucR8arV-33" value="" style="edgeStyle=none;curved=1;rounded=0;orthogonalLoop=1;jettySize=auto;html=1;fontSize=12;startSize=8;endSize=8;entryX=-0.058;entryY=-0.093;entryDx=0;entryDy=0;entryPerimeter=0;" edge="1" parent="1" source="Z7rhzHwsSaNoGucR8arV-26" target="Z7rhzHwsSaNoGucR8arV-31">
          <mxGeometry relative="1" as="geometry">
            <mxPoint x="991" y="-245" as="targetPoint" />
          </mxGeometry>
        </mxCell>
        <mxCell id="Z7rhzHwsSaNoGucR8arV-26" value="sagemaker AI" style="sketch=0;points=[[0,0,0],[0.25,0,0],[0.5,0,0],[0.75,0,0],[1,0,0],[0,1,0],[0.25,1,0],[0.5,1,0],[0.75,1,0],[1,1,0],[0,0.25,0],[0,0.5,0],[0,0.75,0],[1,0.25,0],[1,0.5,0],[1,0.75,0]];outlineConnect=0;fontColor=#232F3E;fillColor=#01A88D;strokeColor=#ffffff;dashed=0;verticalLabelPosition=bottom;verticalAlign=top;align=center;html=1;fontSize=12;fontStyle=0;aspect=fixed;shape=mxgraph.aws4.resourceIcon;resIcon=mxgraph.aws4.sagemaker;" vertex="1" parent="1">
          <mxGeometry x="794" y="-284" width="78" height="78" as="geometry" />
        </mxCell>
        <mxCell id="Z7rhzHwsSaNoGucR8arV-38" value="" style="edgeStyle=none;curved=1;rounded=0;orthogonalLoop=1;jettySize=auto;html=1;fontSize=12;startSize=8;endSize=8;" edge="1" parent="1" source="Z7rhzHwsSaNoGucR8arV-31" target="Z7rhzHwsSaNoGucR8arV-37">
          <mxGeometry relative="1" as="geometry" />
        </mxCell>
        <mxCell id="Z7rhzHwsSaNoGucR8arV-31" value="threat scoring" style="fillColor=#28A8E0;verticalLabelPosition=bottom;sketch=0;html=1;strokeColor=#ffffff;verticalAlign=top;align=center;points=[[0.145,0.145,0],[0.5,0,0],[0.855,0.145,0],[1,0.5,0],[0.855,0.855,0],[0.5,1,0],[0.145,0.855,0],[0,0.5,0]];pointerEvents=1;shape=mxgraph.cisco_safe.compositeIcon;bgIcon=ellipse;resIcon=mxgraph.cisco_safe.capability.threat_intelligence;" vertex="1" parent="1">
          <mxGeometry x="1011" y="-160" width="43" height="43" as="geometry" />
        </mxCell>
        <mxCell id="Z7rhzHwsSaNoGucR8arV-42" value="" style="edgeStyle=none;curved=1;rounded=0;orthogonalLoop=1;jettySize=auto;html=1;fontSize=12;startSize=8;endSize=8;entryX=0;entryY=0.5;entryDx=0;entryDy=0;entryPerimeter=0;" edge="1" parent="1" source="Z7rhzHwsSaNoGucR8arV-37" target="Z7rhzHwsSaNoGucR8arV-39">
          <mxGeometry relative="1" as="geometry">
            <mxPoint x="1158" y="-308.5" as="targetPoint" />
          </mxGeometry>
        </mxCell>
        <mxCell id="Z7rhzHwsSaNoGucR8arV-44" value="" style="edgeStyle=none;curved=1;rounded=0;orthogonalLoop=1;jettySize=auto;html=1;fontSize=12;startSize=8;endSize=8;entryX=0;entryY=0.5;entryDx=0;entryDy=0;entryPerimeter=0;" edge="1" parent="1" source="Z7rhzHwsSaNoGucR8arV-37" target="Z7rhzHwsSaNoGucR8arV-40">
          <mxGeometry relative="1" as="geometry">
            <mxPoint x="1158" y="31.5" as="targetPoint" />
          </mxGeometry>
        </mxCell>
        <mxCell id="Z7rhzHwsSaNoGucR8arV-37" value="threat score" style="rhombus;whiteSpace=wrap;html=1;" vertex="1" parent="1">
          <mxGeometry x="1118" y="-178.5" width="80" height="80" as="geometry" />
        </mxCell>
        <mxCell id="Z7rhzHwsSaNoGucR8arV-48" value="" style="edgeStyle=none;curved=1;rounded=0;orthogonalLoop=1;jettySize=auto;html=1;fontSize=12;startSize=8;endSize=8;entryX=0;entryY=0.25;entryDx=0;entryDy=0;entryPerimeter=0;" edge="1" parent="1" source="Z7rhzHwsSaNoGucR8arV-39" target="Z7rhzHwsSaNoGucR8arV-47">
          <mxGeometry relative="1" as="geometry" />
        </mxCell>
        <mxCell id="Z7rhzHwsSaNoGucR8arV-49" value="" style="edgeStyle=none;curved=1;rounded=0;orthogonalLoop=1;jettySize=auto;html=1;fontSize=12;startSize=8;endSize=8;entryX=0;entryY=0.5;entryDx=0;entryDy=0;entryPerimeter=0;" edge="1" parent="1" source="Z7rhzHwsSaNoGucR8arV-39" target="Z7rhzHwsSaNoGucR8arV-46">
          <mxGeometry relative="1" as="geometry">
            <mxPoint x="1477" y="-159" as="targetPoint" />
          </mxGeometry>
        </mxCell>
        <mxCell id="Z7rhzHwsSaNoGucR8arV-50" value="" style="edgeStyle=none;curved=1;rounded=0;orthogonalLoop=1;jettySize=auto;html=1;fontSize=12;startSize=8;endSize=8;" edge="1" parent="1" source="Z7rhzHwsSaNoGucR8arV-39" target="Z7rhzHwsSaNoGucR8arV-45">
          <mxGeometry relative="1" as="geometry" />
        </mxCell>
        <mxCell id="Z7rhzHwsSaNoGucR8arV-39" value="step functions" style="sketch=0;points=[[0,0,0],[0.25,0,0],[0.5,0,0],[0.75,0,0],[1,0,0],[0,1,0],[0.25,1,0],[0.5,1,0],[0.75,1,0],[1,1,0],[0,0.25,0],[0,0.5,0],[0,0.75,0],[1,0.25,0],[1,0.5,0],[1,0.75,0]];outlineConnect=0;fontColor=#232F3E;fillColor=#E7157B;strokeColor=#ffffff;dashed=0;verticalLabelPosition=bottom;verticalAlign=top;align=center;html=1;fontSize=12;fontStyle=0;aspect=fixed;shape=mxgraph.aws4.resourceIcon;resIcon=mxgraph.aws4.step_functions;" vertex="1" parent="1">
          <mxGeometry x="1273" y="-295" width="78" height="78" as="geometry" />
        </mxCell>
        <mxCell id="Z7rhzHwsSaNoGucR8arV-40" value="security hub" style="sketch=0;points=[[0,0,0],[0.25,0,0],[0.5,0,0],[0.75,0,0],[1,0,0],[0,1,0],[0.25,1,0],[0.5,1,0],[0.75,1,0],[1,1,0],[0,0.25,0],[0,0.5,0],[0,0.75,0],[1,0.25,0],[1,0.5,0],[1,0.75,0]];outlineConnect=0;fontColor=#232F3E;fillColor=#DD344C;strokeColor=#ffffff;dashed=0;verticalLabelPosition=bottom;verticalAlign=top;align=center;html=1;fontSize=12;fontStyle=0;aspect=fixed;shape=mxgraph.aws4.resourceIcon;resIcon=mxgraph.aws4.security_hub;" vertex="1" parent="1">
          <mxGeometry x="1278" y="-103" width="78" height="78" as="geometry" />
        </mxCell>
        <mxCell id="Z7rhzHwsSaNoGucR8arV-45" value="auto-remediation" style="sketch=0;outlineConnect=0;fontColor=#232F3E;gradientColor=none;fillColor=#7AA116;strokeColor=none;dashed=0;verticalLabelPosition=bottom;verticalAlign=top;align=center;html=1;fontSize=12;fontStyle=0;aspect=fixed;pointerEvents=1;shape=mxgraph.aws4.lambda_function;" vertex="1" parent="1">
          <mxGeometry x="1482" y="-307" width="78" height="78" as="geometry" />
        </mxCell>
        <mxCell id="Z7rhzHwsSaNoGucR8arV-46" value="notify SOC team" style="outlineConnect=0;dashed=0;verticalLabelPosition=bottom;verticalAlign=top;align=center;html=1;shape=mxgraph.aws3.lambda_function;fillColor=#5294CF;gradientColor=none;" vertex="1" parent="1">
          <mxGeometry x="1505" y="-178.5" width="60" height="63" as="geometry" />
        </mxCell>
        <mxCell id="Z7rhzHwsSaNoGucR8arV-53" value="" style="edgeStyle=none;curved=1;rounded=0;orthogonalLoop=1;jettySize=auto;html=1;fontSize=12;startSize=8;endSize=8;" edge="1" parent="1" source="Z7rhzHwsSaNoGucR8arV-47" target="Z7rhzHwsSaNoGucR8arV-51">
          <mxGeometry relative="1" as="geometry" />
        </mxCell>
        <mxCell id="Z7rhzHwsSaNoGucR8arV-55" value="" style="edgeStyle=none;curved=1;rounded=0;orthogonalLoop=1;jettySize=auto;html=1;fontSize=12;startSize=8;endSize=8;" edge="1" parent="1" source="Z7rhzHwsSaNoGucR8arV-47" target="Z7rhzHwsSaNoGucR8arV-52">
          <mxGeometry relative="1" as="geometry">
            <mxPoint x="1539" y="155" as="targetPoint" />
          </mxGeometry>
        </mxCell>
        <mxCell id="Z7rhzHwsSaNoGucR8arV-47" value="bedrock: generate report" style="sketch=0;points=[[0,0,0],[0.25,0,0],[0.5,0,0],[0.75,0,0],[1,0,0],[0,1,0],[0.25,1,0],[0.5,1,0],[0.75,1,0],[1,1,0],[0,0.25,0],[0,0.5,0],[0,0.75,0],[1,0.25,0],[1,0.5,0],[1,0.75,0]];outlineConnect=0;fontColor=#232F3E;fillColor=#01A88D;strokeColor=#ffffff;dashed=0;verticalLabelPosition=bottom;verticalAlign=top;align=center;html=1;fontSize=12;fontStyle=0;aspect=fixed;shape=mxgraph.aws4.resourceIcon;resIcon=mxgraph.aws4.bedrock;" vertex="1" parent="1">
          <mxGeometry x="1500" y="-52" width="78" height="78" as="geometry" />
        </mxCell>
        <mxCell id="Z7rhzHwsSaNoGucR8arV-51" value="quicksight dashboard" style="sketch=0;points=[[0,0,0],[0.25,0,0],[0.5,0,0],[0.75,0,0],[1,0,0],[0,1,0],[0.25,1,0],[0.5,1,0],[0.75,1,0],[1,1,0],[0,0.25,0],[0,0.5,0],[0,0.75,0],[1,0.25,0],[1,0.5,0],[1,0.75,0]];outlineConnect=0;fontColor=#232F3E;fillColor=#8C4FFF;strokeColor=#ffffff;dashed=0;verticalLabelPosition=bottom;verticalAlign=top;align=center;html=1;fontSize=12;fontStyle=0;aspect=fixed;shape=mxgraph.aws4.resourceIcon;resIcon=mxgraph.aws4.quicksight;" vertex="1" parent="1">
          <mxGeometry x="1688" y="-48" width="78" height="78" as="geometry" />
        </mxCell>
        <mxCell id="Z7rhzHwsSaNoGucR8arV-52" value="service ticket" style="shape=mxgraph.sap.icon;labelPosition=center;verticalLabelPosition=bottom;align=center;verticalAlign=top;strokeWidth=1;strokeColor=#D5DADD;fillColor=#EDEFF0;gradientColor=#FCFCFC;gradientDirection=west;aspect=fixed;SAPIcon=Service_Ticket_Intelligence2" vertex="1" parent="1">
          <mxGeometry x="1709" y="111" width="50" height="50" as="geometry" />
        </mxCell>
      </root>
    </mxGraphModel>
  </diagram>
</mxfile>
